<mxfile host="app.diagrams.net" modified="2024-04-21T17:49:22.255Z" agent="Mozilla/5.0 (X11; Linux x86_64) AppleWebKit/537.36 (KHTML, like Gecko) Chrome/123.0.0.0 Safari/537.36" version="24.2.7" etag="M2z8y2seoZMzoK-P8Dti" type="device">
  <diagram id="i1iQk497gbXuGKNVAci3" name="Page-1">
    <mxGraphModel dx="1852" dy="2472" grid="1" gridSize="10" guides="1" tooltips="1" connect="1" arrows="1" fold="1" page="1" pageScale="1" pageWidth="1169" pageHeight="1654" math="0" shadow="0">
      <root>
        <mxCell id="0" />
        <mxCell id="1" parent="0" />
      </root>
    </mxGraphModel>
  </diagram>
</mxfile>
